HIERARCHY
ROOT Hips
{
	OFFSET 0.000001 107.585541 -0.292875
	CHANNELS 6 Xposition Yposition Zposition Xrotation Yrotation Zrotation
	JOINT Spine
	{
		OFFSET -0.023067 13.156998 0.957426
		CHANNELS 6 Xposition Yposition Zposition Xrotation Yrotation Zrotation
		JOINT Spine1
		{
			OFFSET 0.000000 9.894669 0.072741
			CHANNELS 3 Xrotation Yrotation Zrotation
			JOINT Spine2
			{
				OFFSET 0.000000 10.499985 -0.058234
				CHANNELS 3 Xrotation Yrotation Zrotation
				JOINT Neck
				{
					OFFSET -0.000000 26.776306 -4.691216
					CHANNELS 6 Xposition Yposition Zposition Xrotation Yrotation Zrotation
					JOINT Head
					{
						OFFSET 0.000000 14.063217 3.449322
						CHANNELS 6 Xposition Yposition Zposition Xrotation Yrotation Zrotation
						JOINT HeadTop_End
						{
							OFFSET 0.000000 19.645248 2.611582
							CHANNELS 6 Xposition Yposition Zposition Xrotation Yrotation Zrotation
							End Site
							{
								OFFSET 0.000000 14.113129 0.000000
							}
						}
						JOINT L_Eye
						{
							OFFSET 3.570282 7.264572 7.838836
							CHANNELS 6 Xposition Yposition Zposition Xrotation Yrotation Zrotation
							End Site
							{
								OFFSET 0.000000 14.113129 0.000000
							}
						}
						JOINT R_Eye
						{
							OFFSET -3.524154 7.264282 7.838838
							CHANNELS 6 Xposition Yposition Zposition Xrotation Yrotation Zrotation
							End Site
							{
								OFFSET 0.000000 14.113129 0.000000
							}
						}
					}
				}
				JOINT L_Shoulder
				{
					OFFSET 7.980431 21.886398 -6.266449
					CHANNELS 6 Xposition Yposition Zposition Xrotation Yrotation Zrotation
					JOINT L_Arm
					{
						OFFSET 10.677479 -5.478394 -0.078065
						CHANNELS 3 Xrotation Yrotation Zrotation
						JOINT L_ForeArm
						{
							OFFSET 27.567778 0.000015 0.000000
							CHANNELS 3 Xrotation Yrotation Zrotation
							JOINT L_Hand
							{
								OFFSET 27.500092 -0.000015 0.480016
								CHANNELS 3 Xrotation Yrotation Zrotation
								JOINT L_HandThumb1
								{
									OFFSET 5.751503 -2.607742 4.214736
									CHANNELS 6 Xposition Yposition Zposition Xrotation Yrotation Zrotation
									JOINT L_HandThumb2
									{
										OFFSET 2.728218 -1.585464 1.645159
										CHANNELS 6 Xposition Yposition Zposition Xrotation Yrotation Zrotation
										JOINT L_HandThumb3
										{
											OFFSET 2.690651 -1.563644 1.622507
											CHANNELS 6 Xposition Yposition Zposition Xrotation Yrotation Zrotation
											JOINT L_HandThumb4
											{
												OFFSET 2.811111 -1.633636 1.695147
												CHANNELS 6 Xposition Yposition Zposition Xrotation Yrotation Zrotation
												End Site
												{
													OFFSET 2.811104 -1.633652 1.695142
												}
											}
										}
									}
								}
								JOINT L_HandIndex1
								{
									OFFSET 13.704086 -1.118973 2.963548
									CHANNELS 6 Xposition Yposition Zposition Xrotation Yrotation Zrotation
									JOINT L_HandIndex2
									{
										OFFSET 2.538002 -0.000046 0.044317
										CHANNELS 3 Xrotation Yrotation Zrotation
										JOINT L_HandIndex3
										{
											OFFSET 3.551018 0.000015 0.062044
											CHANNELS 3 Xrotation Yrotation Zrotation
											JOINT L_HandIndex4
											{
												OFFSET 3.082214 0.000031 0.053894
												CHANNELS 3 Xrotation Yrotation Zrotation
												End Site
												{
													OFFSET 3.082214 0.000046 0.053895
												}
											}
										}
									}
								}
								JOINT L_HandMiddle1
								{
									OFFSET 13.314011 -0.054794 0.195248
									CHANNELS 6 Xposition Yposition Zposition Xrotation Yrotation Zrotation
									JOINT L_HandMiddle2
									{
										OFFSET 4.054405 -0.000015 0.070800
										CHANNELS 3 Xrotation Yrotation Zrotation
										JOINT L_HandMiddle3
										{
											OFFSET 2.984230 -0.000031 0.052059
											CHANNELS 3 Xrotation Yrotation Zrotation
											JOINT L_HandMiddle4
											{
												OFFSET 3.040154 -0.000031 0.053016
												CHANNELS 3 Xrotation Yrotation Zrotation
												End Site
												{
													OFFSET 3.040154 0.000000 0.053016
												}
											}
										}
									}
								}
								JOINT L_HandRing1
								{
									OFFSET 12.889366 0.014862 -3.304775
									CHANNELS 6 Xposition Yposition Zposition Xrotation Yrotation Zrotation
									JOINT L_HandRing2
									{
										OFFSET 4.066383 0.000000 0.071006
										CHANNELS 3 Xrotation Yrotation Zrotation
										JOINT L_HandRing3
										{
											OFFSET 2.688652 0.000061 0.047021
											CHANNELS 3 Xrotation Yrotation Zrotation
											JOINT L_HandRing4
											{
												OFFSET 2.892899 0.000000 0.050566
												CHANNELS 3 Xrotation Yrotation Zrotation
												End Site
												{
													OFFSET 2.892906 0.000015 0.050566
												}
											}
										}
									}
								}
								JOINT L_HandPinky1
								{
									OFFSET 12.770164 -1.052109 -6.055603
									CHANNELS 6 Xposition Yposition Zposition Xrotation Yrotation Zrotation
									JOINT L_HandPinky2
									{
										OFFSET 3.092682 -0.000046 0.054011
										CHANNELS 3 Xrotation Yrotation Zrotation
										JOINT L_HandPinky3
										{
											OFFSET 2.176254 0.000031 0.038088
											CHANNELS 3 Xrotation Yrotation Zrotation
											JOINT L_HandPinky4
											{
												OFFSET 2.208496 -0.000031 0.038607
												CHANNELS 3 Xrotation Yrotation Zrotation
												End Site
												{
													OFFSET 2.208504 -0.000031 0.038607
												}
											}
										}
									}
								}
							}
						}
					}
				}
				JOINT R_Shoulder
				{
					OFFSET -7.980434 21.886810 -6.266449
					CHANNELS 6 Xposition Yposition Zposition Xrotation Yrotation Zrotation
					JOINT R_Arm
					{
						OFFSET -10.677509 -5.479004 -0.078070
						CHANNELS 3 Xrotation Yrotation Zrotation
						JOINT R_ForeArm
						{
							OFFSET -27.567785 0.000000 -0.000000
							CHANNELS 3 Xrotation Yrotation Zrotation
							JOINT R_Hand
							{
								OFFSET -27.500015 0.000000 0.480015
								CHANNELS 3 Xrotation Yrotation Zrotation
								JOINT R_HandThumb1
								{
									OFFSET -5.971848 -2.424500 3.942988
									CHANNELS 6 Xposition Yposition Zposition Xrotation Yrotation Zrotation
									JOINT R_HandThumb2
									{
										OFFSET -2.728195 -1.584976 1.645155
										CHANNELS 6 Xposition Yposition Zposition Xrotation Yrotation Zrotation
										JOINT R_HandThumb3
										{
											OFFSET -2.690704 -1.563995 1.622524
											CHANNELS 6 Xposition Yposition Zposition Xrotation Yrotation Zrotation
											JOINT R_HandThumb4
											{
												OFFSET -2.811142 -1.633011 1.695130
												CHANNELS 6 Xposition Yposition Zposition Xrotation Yrotation Zrotation
												End Site
												{
													OFFSET -2.811142 -1.632996 1.695138
												}
											}
										}
									}
								}
								JOINT R_HandIndex1
								{
									OFFSET -13.521736 -0.054581 0.198885
									CHANNELS 6 Xposition Yposition Zposition Xrotation Yrotation Zrotation
									JOINT R_HandIndex2
									{
										OFFSET -4.381210 0.000015 0.076519
										CHANNELS 3 Xrotation Yrotation Zrotation
										JOINT R_HandIndex3
										{
											OFFSET -3.478577 0.000031 0.060751
											CHANNELS 3 Xrotation Yrotation Zrotation
											JOINT R_HandIndex4
											{
												OFFSET -6.319054 -0.000015 0.110473
												CHANNELS 3 Xrotation Yrotation Zrotation
												End Site
												{
													OFFSET -6.319061 0.000015 0.110474
												}
											}
										}
									}
								}
								JOINT R_HandRing1
								{
									OFFSET -12.702789 0.785950 -3.722343
									CHANNELS 6 Xposition Yposition Zposition Xrotation Yrotation Zrotation
									JOINT R_HandRing2
									{
										OFFSET -4.066383 0.000000 0.070999
										CHANNELS 3 Xrotation Yrotation Zrotation
										JOINT R_HandRing3
										{
											OFFSET -2.688583 0.000015 0.047006
											CHANNELS 3 Xrotation Yrotation Zrotation
											JOINT R_HandRing4
											{
												OFFSET -2.892967 -0.000015 0.050556
												CHANNELS 3 Xrotation Yrotation Zrotation
												End Site
												{
													OFFSET -2.892960 0.000015 0.050555
												}
											}
										}
									}
								}
								JOINT R_HandPinky1
								{
									OFFSET -12.544357 -0.205673 -6.499258
									CHANNELS 6 Xposition Yposition Zposition Xrotation Yrotation Zrotation
									JOINT R_HandPinky2
									{
										OFFSET -3.092621 0.000000 0.053982
										CHANNELS 3 Xrotation Yrotation Zrotation
										JOINT R_HandPinky3
										{
											OFFSET -2.176262 0.000000 0.037988
											CHANNELS 3 Xrotation Yrotation Zrotation
											JOINT R_HandPinky4
											{
												OFFSET -2.208572 0.000000 0.038550
												CHANNELS 3 Xrotation Yrotation Zrotation
												End Site
												{
													OFFSET -2.208565 0.000000 0.038550
												}
											}
										}
									}
								}
							}
						}
					}
				}
			}
		}
	}
	JOINT L_UpLeg
	{
		OFFSET 10.121319 -5.316734 0.163048
		CHANNELS 6 Xposition Yposition Zposition Xrotation Yrotation Zrotation
		JOINT L_Leg
		{
			OFFSET -0.000002 -40.854481 0.206897
			CHANNELS 3 Xrotation Yrotation Zrotation
			JOINT L_Foot
			{
				OFFSET 0.000002 -52.055374 -3.073691
				CHANNELS 3 Xrotation Yrotation Zrotation
				JOINT L_ToeBase
				{
					OFFSET 1.169127 -9.354687 13.784521
					CHANNELS 6 Xposition Yposition Zposition Xrotation Yrotation Zrotation
					JOINT L_Toe_End
					{
						OFFSET 0.516993 -0.004916 8.312323
						CHANNELS 6 Xposition Yposition Zposition Xrotation Yrotation Zrotation
						End Site
						{
							OFFSET 0.516995 -0.004916 8.312323
						}
					}
				}
			}
		}
	}
	JOINT R_UpLeg
	{
		OFFSET -10.121301 -5.316544 0.163048
		CHANNELS 6 Xposition Yposition Zposition Xrotation Yrotation Zrotation
		JOINT R_Leg
		{
			OFFSET 0.000055 -40.854687 0.206898
			CHANNELS 3 Xrotation Yrotation Zrotation
			JOINT R_Foot
			{
				OFFSET -0.000054 -52.055359 -3.073693
				CHANNELS 3 Xrotation Yrotation Zrotation
				JOINT R_ToeBase
				{
					OFFSET -1.169123 -9.354716 13.784500
					CHANNELS 6 Xposition Yposition Zposition Xrotation Yrotation Zrotation
					JOINT R_Toe_End
					{
						OFFSET -0.516972 -0.004950 8.311937
						CHANNELS 6 Xposition Yposition Zposition Xrotation Yrotation Zrotation
						End Site
						{
							OFFSET -0.516973 -0.004951 8.311935
						}
					}
				}
			}
		}
	}
}
MOTION
Frames: 4
Frame Time: 0.033333
25.356052 95.151779 7.237800 3.387980 3.001864 -6.867773 -0.023068 13.156994 0.957427 6.990535 1.990997 -2.021460 13.434348 5.128062 -5.853635 13.391933 4.919602 -6.180742 -0.000000 26.776318 -4.691212 14.811223 3.206074 3.035661 0.000004 14.063214 3.449319 -13.981908 8.090295 18.213586 -0.000006 19.645248 2.611577 -0.000001 -0.000000 -0.000001 3.570276 7.264572 7.838840 0.000000 -0.000000 -0.000001 -3.524155 7.264282 7.838840 0.000000 -0.000000 -0.000001 7.980433 21.886393 -6.266458 1.792282 -10.899100 24.159846 -79.330024 -43.539420 -51.321891 -0.000006 -18.487196 0.000007 -9.956232 -6.045905 -6.242365 5.751520 -2.607738 4.214742 0.926195 5.662226 2.627926 2.728221 -1.585439 1.645181 4.400033 -0.658136 -3.555703 2.690648 -1.563662 1.622502 7.402784 41.134760 -0.422996 2.811104 -1.633634 1.695134 0.000002 0.000003 -0.000000 13.704114 -1.118990 2.963543 -11.021909 -7.597287 -13.875171 0.492017 2.778895 -20.407330 2.335563 4.908055 -40.075886 -0.000000 -0.000003 -0.000002 13.314034 -0.054771 0.195244 -0.960073 -2.065214 -0.494508 2.866767 6.252857 -53.957678 0.055432 2.422669 -17.743354 -0.000002 -0.000002 -0.000001 12.889374 0.014834 -3.304782 -2.868559 11.841907 17.449124 0.435869 3.443639 -25.386360 1.784000 4.588778 -36.600713 -0.000002 0.000003 0.000000 12.770182 -1.052124 -6.055612 3.610955 25.240993 3.201797 0.709455 3.669766 -26.769219 3.967700 6.236995 -55.050420 -0.000002 0.000001 0.000002 -7.980441 21.886803 -6.266454 -1.305798 -9.090553 -6.646442 106.869088 111.582130 -124.948844 0.000003 19.537949 -0.000002 -5.226789 12.855680 12.701447 -5.971853 -2.424518 3.942986 -7.997314 22.567269 -15.751553 -2.728207 -1.585012 1.645168 6.795100 -45.017036 -9.110883 -2.690707 -1.563980 1.622510 -12.845246 21.749378 8.049288 -2.811140 -1.633011 1.695133 0.000004 0.000007 0.000002 -13.521752 -0.054582 0.198878 0.021493 -3.878138 -20.725161 2.516836 -5.058351 44.644186 0.036974 -1.069832 8.184745 -0.000000 -0.000001 -0.000000 -12.702814 0.785947 -3.722343 0.095464 -8.111862 15.771798 -0.600826 -0.971533 6.601408 -0.254468 -0.755249 5.626919 0.000002 0.000000 -0.000003 -12.544362 -0.205682 -6.499260 1.042409 -10.010243 29.397626 3.574990 -6.017387 55.863540 2.437612 -4.992034 43.088563 -0.000001 -0.000003 0.000002 10.121323 -5.316733 0.163045 -25.280980 5.208579 11.350039 54.180885 9.850920 4.225344 -33.890374 -5.222088 -10.956014 1.169127 -9.354692 13.784524 -0.883208 0.000002 0.000003 0.516995 -0.004916 8.312325 0.000000 -0.000000 0.000000 -10.121301 -5.316542 0.163058 -46.309895 -4.689196 3.313234 71.064020 -11.228497 0.344296 12.062767 -26.964511 3.900892 -1.169122 -9.354715 13.784493 -28.819051 -0.241744 4.195967 -0.516972 -0.004950 8.311935 0.000000 -0.000003 0.000000 
24.409922 94.958977 7.771461 3.659248 5.727889 -6.382119 -0.023067 13.156998 0.957424 7.048212 1.868379 -1.516961 13.564650 4.992037 -5.297110 13.531223 4.778176 -5.684603 -0.000001 26.776318 -4.691210 14.082688 2.829084 2.519604 0.000005 14.063191 3.449305 -14.693388 6.777642 16.263109 -0.000003 19.645264 2.611579 -0.000001 0.000001 -0.000001 3.570279 7.264587 7.838830 0.000000 0.000001 -0.000001 -3.524155 7.264297 7.838827 0.000000 0.000001 -0.000001 7.980426 21.886381 -6.266438 1.804097 -11.271186 24.581279 -79.166134 -43.045877 -51.292675 -0.000003 -20.039379 0.000023 -9.952626 -6.075472 -6.063421 5.751507 -2.607745 4.214722 0.926197 5.662229 2.627928 2.728221 -1.585465 1.645155 4.400033 -0.658139 -3.555703 2.690655 -1.563663 1.622502 7.402792 41.134756 -0.422996 2.811101 -1.633603 1.695153 0.000003 -0.000001 -0.000002 13.704099 -1.118976 2.963550 -11.021911 -7.597286 -13.875169 0.492021 2.778896 -20.407328 2.335562 4.908056 -40.075886 0.000000 0.000002 0.000001 13.314012 -0.054771 0.195231 -0.960073 -2.065214 -0.494509 2.866762 6.252857 -53.957671 0.055434 2.422670 -17.743354 -0.000002 -0.000004 -0.000000 12.889366 0.014863 -3.304789 -2.868558 11.841909 17.449124 0.435865 3.443639 -25.386358 1.784003 4.588784 -36.600709 0.000000 0.000003 0.000002 12.770168 -1.052113 -6.055612 3.610951 25.240993 3.201796 0.709456 3.669767 -26.769215 3.967697 6.237002 -55.050420 -0.000000 0.000001 0.000000 -7.980435 21.886780 -6.266443 -1.314453 -9.724083 -5.854370 113.569872 110.482572 -133.739147 0.000001 19.958342 -0.000017 -5.659863 12.317950 13.121270 -5.971853 -2.424520 3.942981 -7.997315 22.567278 -15.751555 -2.728195 -1.584981 1.645152 6.795099 -45.017025 -9.110877 -2.690707 -1.564002 1.622503 -12.845247 21.749376 8.049288 -2.811160 -1.632998 1.695132 0.000000 0.000003 0.000004 -13.521749 -0.054587 0.198876 0.021493 -3.878136 -20.725159 2.516835 -5.058353 44.644186 0.036976 -1.069832 8.184743 -0.000003 -0.000000 -0.000002 -12.702787 0.785928 -3.722349 0.095463 -8.111862 15.771796 -0.600829 -0.971534 6.601413 -0.254466 -0.755248 5.626918 -0.000003 0.000000 0.000001 -12.544354 -0.205698 -6.499263 1.042407 -10.010244 29.397629 3.574990 -6.017386 55.863547 2.437611 -4.992033 43.088563 0.000001 -0.000001 0.000000 10.121317 -5.316717 0.163046 -24.492360 4.865385 11.814174 53.623317 8.900178 4.173526 -34.549962 -6.768484 -11.834459 1.169130 -9.354694 13.784524 -1.078336 -0.000007 0.000001 0.516995 -0.004916 8.312325 0.000000 0.000002 0.000000 -10.121298 -5.316532 0.163051 -48.444442 -3.110786 0.310054 69.494532 -12.164841 0.370748 9.435385 -24.218638 4.250992 -1.169124 -9.354716 13.784495 -26.789489 0.000067 -0.000004 -0.516968 -0.004950 8.311939 0.000000 0.000004 0.000001 
23.312963 94.845604 8.166901 3.910658 8.499095 -5.940330 -0.023069 13.156992 0.957424 7.120496 1.760954 -0.912993 13.710673 4.852913 -4.691516 13.683945 4.640168 -5.147041 0.000004 26.776293 -4.691208 12.942689 2.218673 1.757122 -0.000008 14.063219 3.449297 -15.658543 4.577868 13.330807 0.000000 19.645233 2.611587 -0.000001 -0.000001 0.000000 3.570281 7.264572 7.838844 0.000000 -0.000001 0.000001 -3.524154 7.264282 7.838845 0.000000 -0.000001 0.000001 7.980434 21.886385 -6.266446 2.029116 -11.655609 25.966923 -78.989123 -42.549893 -51.254935 -0.000009 -21.659027 0.000017 -9.891114 -6.140000 -5.706553 5.751518 -2.607746 4.214736 0.926200 5.662227 2.627930 2.728235 -1.585421 1.645168 4.400035 -0.658132 -3.555699 2.690659 -1.563655 1.622498 7.402780 41.134760 -0.422996 2.811115 -1.633618 1.695144 0.000000 0.000005 0.000002 13.704103 -1.119011 2.963538 -11.021910 -7.597285 -13.875172 0.492014 2.778895 -20.407330 2.335567 4.908059 -40.075882 0.000000 -0.000003 -0.000001 13.314018 -0.054801 0.195249 -0.960072 -2.065214 -0.494509 2.866764 6.252857 -53.957675 0.055434 2.422673 -17.743356 -0.000000 0.000000 -0.000000 12.889370 0.014821 -3.304791 -2.868558 11.841907 17.449125 0.435869 3.443638 -25.386360 1.784004 4.588781 -36.600709 -0.000004 0.000000 0.000001 12.770180 -1.052126 -6.055614 3.610952 25.240993 3.201797 0.709459 3.669764 -26.769224 3.967701 6.236997 -55.050420 -0.000001 -0.000002 0.000000 -7.980436 21.886776 -6.266452 -1.302871 -10.376526 -5.024183 120.647082 109.771133 -143.033177 0.000010 20.415147 -0.000017 -5.917707 11.705185 13.205854 -5.971841 -2.424533 3.942989 -7.997315 22.567273 -15.751559 -2.728216 -1.585010 1.645152 6.795102 -45.017029 -9.110884 -2.690706 -1.563974 1.622515 -12.845246 21.749383 8.049287 -2.811160 -1.633014 1.695145 0.000000 0.000007 0.000004 -13.521733 -0.054612 0.198891 0.021494 -3.878136 -20.725161 2.516836 -5.058347 44.644186 0.036973 -1.069833 8.184738 -0.000005 -0.000001 0.000002 -12.702795 0.785920 -3.722337 0.095464 -8.111862 15.771791 -0.600831 -0.971533 6.601415 -0.254471 -0.755249 5.626921 0.000001 0.000000 0.000002 -12.544348 -0.205717 -6.499251 1.042411 -10.010242 29.397626 3.574987 -6.017388 55.863537 2.437611 -4.992032 43.088566 0.000002 0.000002 0.000001 10.121315 -5.316753 0.163042 -23.738331 4.255828 12.233146 52.824102 8.011353 4.245887 -34.931705 -8.098446 -12.835665 1.169120 -9.354694 13.784520 -1.304486 -0.000011 0.000003 0.516988 -0.004916 8.312322 -0.000000 0.000001 -0.000000 -10.121303 -5.316551 0.163062 -48.888780 -1.739580 -3.120278 66.029802 -11.908933 0.157621 5.453408 -21.408357 3.834940 -1.169122 -9.354715 13.784496 -22.709004 0.000049 -0.000012 -0.516971 -0.004949 8.311932 -0.000001 0.000002 0.000001 
22.122540 94.737450 8.427712 4.127114 11.327645 -5.411130 -0.023066 13.157001 0.957425 7.201728 1.666469 -0.235833 13.865687 4.714417 -4.046903 13.844471 4.507357 -4.576425 0.000002 26.776316 -4.691211 11.514049 1.472735 0.826512 -0.000004 14.063201 3.449322 -16.892931 1.837636 9.829488 0.000005 19.645233 2.611583 0.000002 0.000001 -0.000001 3.570288 7.264572 7.838827 0.000003 0.000001 -0.000001 -3.524149 7.264282 7.838829 0.000003 0.000001 -0.000001 7.980422 21.886406 -6.266454 2.401154 -12.027312 27.963360 -78.813724 -42.048618 -51.223492 -0.000012 -23.335293 0.000009 -9.793322 -6.225424 -5.232006 5.751511 -2.607717 4.214738 0.926191 5.662227 2.627930 2.728212 -1.585460 1.645154 4.400035 -0.658136 -3.555699 2.690643 -1.563673 1.622502 7.402791 41.134756 -0.422992 2.811116 -1.633636 1.695143 0.000005 0.000004 -0.000002 13.704090 -1.118965 2.963549 -11.021907 -7.597285 -13.875167 0.492018 2.778897 -20.407331 2.335567 4.908056 -40.075886 -0.000001 -0.000003 0.000000 13.314019 -0.054756 0.195244 -0.960072 -2.065214 -0.494509 2.866760 6.252858 -53.957675 0.055431 2.422671 -17.743349 0.000001 0.000003 0.000000 12.889366 0.014863 -3.304768 -2.868560 11.841909 17.449124 0.435869 3.443641 -25.386362 1.784001 4.588781 -36.600713 0.000002 0.000003 0.000001 12.770166 -1.052080 -6.055599 3.610948 25.240997 3.201797 0.709459 3.669762 -26.769221 3.967704 6.236996 -55.050416 -0.000002 0.000001 0.000002 -7.980436 21.886808 -6.266451 -1.270508 -11.044074 -4.172972 127.734469 109.457258 -152.446325 -0.000007 20.890492 -0.000013 -6.047318 11.173050 13.037205 -5.971845 -2.424537 3.942993 -7.997315 22.567275 -15.751555 -2.728203 -1.585023 1.645152 6.795103 -45.017039 -9.110882 -2.690703 -1.563956 1.622525 -12.845248 21.749380 8.049290 -2.811136 -1.633026 1.695121 -0.000000 0.000004 0.000001 -13.521733 -0.054582 0.198889 0.021491 -3.878140 -20.725161 2.516835 -5.058352 44.644189 0.036977 -1.069829 8.184746 -0.000002 0.000001 0.000005 -12.702803 0.785912 -3.722336 0.095462 -8.111866 15.771795 -0.600827 -0.971532 6.601414 -0.254469 -0.755248 5.626923 0.000001 0.000000 0.000000 -12.544339 -0.205698 -6.499251 1.042408 -10.010244 29.397626 3.574992 -6.017389 55.863547 2.437614 -4.992031 43.088563 0.000000 0.000004 -0.000001 10.121321 -5.316730 0.163047 -23.101286 3.571319 12.568698 51.950207 6.987689 4.373984 -35.124627 -9.255292 -13.818126 1.169127 -9.354693 13.784523 -1.705745 0.000004 0.000001 0.516990 -0.004916 8.312322 -0.000000 0.000001 -0.000000 -10.121299 -5.316541 0.163050 -48.364228 -0.885446 -6.809150 61.118739 -11.179526 -0.180098 1.771226 -17.828185 3.143119 -1.169123 -9.354714 13.784497 -14.281935 0.000043 -0.000010 -0.516973 -0.004949 8.311934 -0.000000 0.000002 0.000000 
